<?xml version="1.0" encoding="utf-8"?>
<!-- Designed by Vexels.com - 2018 All Rights Reserved - https://vexels.com/terms-and-conditions/  -->
<svg version="1.1" id="Layer_1" xmlns="http://www.w3.org/2000/svg" xmlns:xlink="http://www.w3.org/1999/xlink" x="0px" y="0px"
	 viewBox="0 0 1200 1200" enable-background="new 0 0 1200 1200" xml:space="preserve">
<g>
	<g>
		<rect x="201.064" y="66.311" fill="#d8d8d8" width="1.823" height="1061.996"/>
		<rect x="68.191" y="66.311" fill="#d8d8d8" width="1.823" height="1061.996"/>
		<rect x="333.902" y="66.311" fill="#d8d8d8" width="1.823" height="1061.996"/>
		<rect x="466.741" y="66.311" fill="#d8d8d8" width="1.823" height="1061.996"/>
		<rect x="599.579" y="66.311" fill="#d8d8d8" width="1.823" height="1061.996"/>
		<rect x="732.418" y="66.311" fill="#d8d8d8" width="1.823" height="1061.996"/>
		<rect x="865.256" y="66.311" fill="#d8d8d8" width="1.823" height="1061.996"/>
		<rect x="998.095" y="66.311" fill="#d8d8d8" width="1.823" height="1061.996"/>
		<rect x="1130.933" y="66.311" fill="#d8d8d8" width="1.823" height="1061.996"/>
		<g>
			<rect x="69.009" y="1000.152" fill="#d8d8d8" width="1062.939" height="1.823"/>
			<rect x="69.009" y="1133.688" fill="#d8d8d8" width="1062.939" height="1.823"/>
			<rect x="69.009" y="866.616" fill="#d8d8d8" width="1062.939" height="1.823"/>
			<rect x="69.062" y="733.081" fill="#d8d8d8" width="1062.939" height="1.823"/>
			<rect x="69.009" y="599.544" fill="#d8d8d8" width="1062.939" height="1.823"/>
			<rect x="69.009" y="466.008" fill="#d8d8d8" width="1062.939" height="1.823"/>
			<rect x="69.009" y="332.472" fill="#d8d8d8" width="1062.939" height="1.823"/>
			<rect x="69.009" y="198.936" fill="#d8d8d8" width="1062.939" height="1.823"/>
			<rect x="69.009" y="65.4" fill="#d8d8d8" width="1062.939" height="1.823"/>
		</g>
	</g>
	<g>
		<g>
			<path fill="#36ade0" d="M201.975,215.015c-0.755,0-1.367-0.612-1.367-1.367v-28.066c0-0.755,0.612-1.367,1.367-1.367
				s1.367,0.612,1.367,1.367v28.066C203.342,214.403,202.73,215.015,201.975,215.015z"/>
			<path fill="#36ade0" d="M216.008,200.982h-28.066c-0.755,0-1.367-0.612-1.367-1.367s0.612-1.367,1.367-1.367h28.066
				c0.755,0,1.367,0.612,1.367,1.367S216.763,200.982,216.008,200.982z"/>
		</g>
		<g>
			<path fill="#36ade0" d="M68.156,215.015c-0.755,0-1.367-0.612-1.367-1.367v-28.066c0-0.755,0.612-1.367,1.367-1.367
				s1.367,0.612,1.367,1.367v28.066C69.523,214.403,68.911,215.015,68.156,215.015z"/>
			<path fill="#36ade0" d="M82.189,200.982H54.123c-0.755,0-1.367-0.612-1.367-1.367s0.612-1.367,1.367-1.367h28.066
				c0.755,0,1.367,0.612,1.367,1.367S82.944,200.982,82.189,200.982z"/>
		</g>
		<g>
			<path fill="#36ade0" d="M334.813,215.015c-0.755,0-1.367-0.612-1.367-1.367v-28.066c0-0.755,0.612-1.367,1.367-1.367
				c0.755,0,1.367,0.612,1.367,1.367v28.066C336.18,214.403,335.569,215.015,334.813,215.015z"/>
			<path fill="#36ade0" d="M348.846,200.982H320.78c-0.755,0-1.367-0.612-1.367-1.367s0.612-1.367,1.367-1.367h28.066
				c0.755,0,1.367,0.612,1.367,1.367S349.602,200.982,348.846,200.982z"/>
		</g>
		<g>
			<path fill="#36ade0" d="M467.652,215.015c-0.755,0-1.367-0.612-1.367-1.367v-28.066c0-0.755,0.612-1.367,1.367-1.367
				c0.755,0,1.367,0.612,1.367,1.367v28.066C469.019,214.403,468.407,215.015,467.652,215.015z"/>
			<path fill="#36ade0" d="M481.685,200.982h-28.066c-0.755,0-1.367-0.612-1.367-1.367s0.612-1.367,1.367-1.367h28.066
				c0.755,0,1.367,0.612,1.367,1.367S482.44,200.982,481.685,200.982z"/>
		</g>
		<g>
			<path fill="#36ade0" d="M600.49,215.015c-0.755,0-1.367-0.612-1.367-1.367v-28.066c0-0.755,0.612-1.367,1.367-1.367
				s1.367,0.612,1.367,1.367v28.066C601.857,214.403,601.245,215.015,600.49,215.015z"/>
			<path fill="#36ade0" d="M614.523,200.982h-28.066c-0.755,0-1.367-0.612-1.367-1.367s0.612-1.367,1.367-1.367h28.066
				c0.755,0,1.367,0.612,1.367,1.367S615.278,200.982,614.523,200.982z"/>
		</g>
		<g>
			<path fill="#36ade0" d="M733.329,215.015c-0.755,0-1.367-0.612-1.367-1.367v-28.066c0-0.755,0.612-1.367,1.367-1.367
				s1.367,0.612,1.367,1.367v28.066C734.696,214.403,734.084,215.015,733.329,215.015z"/>
			<path fill="#36ade0" d="M747.362,200.982h-28.066c-0.755,0-1.367-0.612-1.367-1.367s0.612-1.367,1.367-1.367h28.066
				c0.755,0,1.367,0.612,1.367,1.367S748.117,200.982,747.362,200.982z"/>
		</g>
		<g>
			<path fill="#36ade0" d="M866.167,215.015c-0.755,0-1.367-0.612-1.367-1.367v-28.066c0-0.755,0.612-1.367,1.367-1.367
				c0.755,0,1.367,0.612,1.367,1.367v28.066C867.534,214.403,866.922,215.015,866.167,215.015z"/>
			<path fill="#36ade0" d="M880.2,200.982h-28.066c-0.755,0-1.367-0.612-1.367-1.367s0.612-1.367,1.367-1.367H880.2
				c0.755,0,1.367,0.612,1.367,1.367S880.955,200.982,880.2,200.982z"/>
		</g>
		<g>
			<path fill="#36ade0" d="M999.006,215.015c-0.755,0-1.367-0.612-1.367-1.367v-28.066c0-0.755,0.612-1.367,1.367-1.367
				c0.755,0,1.367,0.612,1.367,1.367v28.066C1000.373,214.403,999.761,215.015,999.006,215.015z"/>
			<path fill="#36ade0" d="M1013.039,200.982h-28.066c-0.755,0-1.367-0.612-1.367-1.367s0.612-1.367,1.367-1.367h28.066
				c0.755,0,1.367,0.612,1.367,1.367S1013.794,200.982,1013.039,200.982z"/>
		</g>
		<g>
			<path fill="#36ade0" d="M1131.844,215.015c-0.755,0-1.367-0.612-1.367-1.367v-28.066c0-0.755,0.612-1.367,1.367-1.367
				c0.755,0,1.367,0.612,1.367,1.367v28.066C1133.211,214.403,1132.599,215.015,1131.844,215.015z"/>
			<path fill="#36ade0" d="M1145.877,200.982h-28.066c-0.755,0-1.367-0.612-1.367-1.367s0.612-1.367,1.367-1.367h28.066
				c0.755,0,1.367,0.612,1.367,1.367S1146.632,200.982,1145.877,200.982z"/>
		</g>
	</g>
	<g>
		<g>
			<path fill="#36ade0" d="M201.975,80.799c-0.755,0-1.367-0.612-1.367-1.367V51.367c0-0.755,0.612-1.367,1.367-1.367
				s1.367,0.612,1.367,1.367v28.065C203.342,80.188,202.73,80.799,201.975,80.799z"/>
			<path fill="#36ade0" d="M216.008,66.767h-28.066c-0.755,0-1.367-0.612-1.367-1.367s0.612-1.367,1.367-1.367h28.066
				c0.755,0,1.367,0.612,1.367,1.367S216.763,66.767,216.008,66.767z"/>
		</g>
		<g>
			<path fill="#36ade0" d="M68.156,80.799c-0.755,0-1.367-0.612-1.367-1.367V51.367c0-0.755,0.612-1.367,1.367-1.367
				s1.367,0.612,1.367,1.367v28.065C69.523,80.188,68.911,80.799,68.156,80.799z"/>
			<path fill="#36ade0" d="M82.189,66.767H54.123c-0.755,0-1.367-0.612-1.367-1.367s0.612-1.367,1.367-1.367h28.066
				c0.755,0,1.367,0.612,1.367,1.367S82.944,66.767,82.189,66.767z"/>
		</g>
		<g>
			<path fill="#36ade0" d="M334.813,80.799c-0.755,0-1.367-0.612-1.367-1.367V51.367c0-0.755,0.612-1.367,1.367-1.367
				c0.755,0,1.367,0.612,1.367,1.367v28.065C336.18,80.188,335.569,80.799,334.813,80.799z"/>
			<path fill="#36ade0" d="M348.846,66.767H320.78c-0.755,0-1.367-0.612-1.367-1.367s0.612-1.367,1.367-1.367h28.066
				c0.755,0,1.367,0.612,1.367,1.367S349.602,66.767,348.846,66.767z"/>
		</g>
		<g>
			<path fill="#36ade0" d="M467.652,80.799c-0.755,0-1.367-0.612-1.367-1.367V51.367c0-0.755,0.612-1.367,1.367-1.367
				c0.755,0,1.367,0.612,1.367,1.367v28.065C469.019,80.188,468.407,80.799,467.652,80.799z"/>
			<path fill="#36ade0" d="M481.685,66.767h-28.066c-0.755,0-1.367-0.612-1.367-1.367s0.612-1.367,1.367-1.367h28.066
				c0.755,0,1.367,0.612,1.367,1.367S482.44,66.767,481.685,66.767z"/>
		</g>
		<g>
			<path fill="#36ade0" d="M600.49,80.799c-0.755,0-1.367-0.612-1.367-1.367V51.367c0-0.755,0.612-1.367,1.367-1.367
				s1.367,0.612,1.367,1.367v28.065C601.857,80.188,601.245,80.799,600.49,80.799z"/>
			<path fill="#36ade0" d="M614.523,66.767h-28.066c-0.755,0-1.367-0.612-1.367-1.367s0.612-1.367,1.367-1.367h28.066
				c0.755,0,1.367,0.612,1.367,1.367S615.278,66.767,614.523,66.767z"/>
		</g>
		<g>
			<path fill="#36ade0" d="M733.329,80.799c-0.755,0-1.367-0.612-1.367-1.367V51.367c0-0.755,0.612-1.367,1.367-1.367
				s1.367,0.612,1.367,1.367v28.065C734.696,80.188,734.084,80.799,733.329,80.799z"/>
			<path fill="#36ade0" d="M747.362,66.767h-28.066c-0.755,0-1.367-0.612-1.367-1.367s0.612-1.367,1.367-1.367h28.066
				c0.755,0,1.367,0.612,1.367,1.367S748.117,66.767,747.362,66.767z"/>
		</g>
		<g>
			<path fill="#36ade0" d="M866.167,80.799c-0.755,0-1.367-0.612-1.367-1.367V51.367c0-0.755,0.612-1.367,1.367-1.367
				c0.755,0,1.367,0.612,1.367,1.367v28.065C867.534,80.188,866.922,80.799,866.167,80.799z"/>
			<path fill="#36ade0" d="M880.2,66.767h-28.066c-0.755,0-1.367-0.612-1.367-1.367s0.612-1.367,1.367-1.367H880.2
				c0.755,0,1.367,0.612,1.367,1.367S880.955,66.767,880.2,66.767z"/>
		</g>
		<g>
			<path fill="#36ade0" d="M999.006,80.799c-0.755,0-1.367-0.612-1.367-1.367V51.367c0-0.755,0.612-1.367,1.367-1.367
				c0.755,0,1.367,0.612,1.367,1.367v28.065C1000.373,80.188,999.761,80.799,999.006,80.799z"/>
			<path fill="#36ade0" d="M1013.039,66.767h-28.066c-0.755,0-1.367-0.612-1.367-1.367s0.612-1.367,1.367-1.367h28.066
				c0.755,0,1.367,0.612,1.367,1.367S1013.794,66.767,1013.039,66.767z"/>
		</g>
		<g>
			<path fill="#36ade0" d="M1131.844,80.799c-0.755,0-1.367-0.612-1.367-1.367V51.367c0-0.755,0.612-1.367,1.367-1.367
				c0.755,0,1.367,0.612,1.367,1.367v28.065C1133.211,80.188,1132.599,80.799,1131.844,80.799z"/>
			<path fill="#36ade0" d="M1145.877,66.767h-28.066c-0.755,0-1.367-0.612-1.367-1.367s0.612-1.367,1.367-1.367h28.066
				c0.755,0,1.367,0.612,1.367,1.367S1146.632,66.767,1145.877,66.767z"/>
		</g>
	</g>
	<g>
		<g>
			<path fill="#36ade0" d="M201.975,482.315c-0.755,0-1.367-0.612-1.367-1.367v-28.066c0-0.755,0.612-1.367,1.367-1.367
				s1.367,0.612,1.367,1.367v28.066C203.342,481.704,202.73,482.315,201.975,482.315z"/>
			<path fill="#36ade0" d="M216.008,468.282h-28.066c-0.755,0-1.367-0.612-1.367-1.367c0-0.755,0.612-1.367,1.367-1.367h28.066
				c0.755,0,1.367,0.612,1.367,1.367C217.375,467.671,216.763,468.282,216.008,468.282z"/>
		</g>
		<g>
			<path fill="#36ade0" d="M68.156,482.315c-0.755,0-1.367-0.612-1.367-1.367v-28.066c0-0.755,0.612-1.367,1.367-1.367
				s1.367,0.612,1.367,1.367v28.066C69.523,481.704,68.911,482.315,68.156,482.315z"/>
			<path fill="#36ade0" d="M82.189,468.282H54.123c-0.755,0-1.367-0.612-1.367-1.367c0-0.755,0.612-1.367,1.367-1.367h28.066
				c0.755,0,1.367,0.612,1.367,1.367C83.556,467.671,82.944,468.282,82.189,468.282z"/>
		</g>
		<g>
			<path fill="#36ade0" d="M334.813,482.315c-0.755,0-1.367-0.612-1.367-1.367v-28.066c0-0.755,0.612-1.367,1.367-1.367
				c0.755,0,1.367,0.612,1.367,1.367v28.066C336.18,481.704,335.569,482.315,334.813,482.315z"/>
			<path fill="#36ade0" d="M348.846,468.282H320.78c-0.755,0-1.367-0.612-1.367-1.367c0-0.755,0.612-1.367,1.367-1.367h28.066
				c0.755,0,1.367,0.612,1.367,1.367C350.213,467.671,349.602,468.282,348.846,468.282z"/>
		</g>
		<g>
			<path fill="#36ade0" d="M467.652,482.315c-0.755,0-1.367-0.612-1.367-1.367v-28.066c0-0.755,0.612-1.367,1.367-1.367
				c0.755,0,1.367,0.612,1.367,1.367v28.066C469.019,481.704,468.407,482.315,467.652,482.315z"/>
			<path fill="#36ade0" d="M481.685,468.282h-28.066c-0.755,0-1.367-0.612-1.367-1.367c0-0.755,0.612-1.367,1.367-1.367h28.066
				c0.755,0,1.367,0.612,1.367,1.367C483.052,467.671,482.44,468.282,481.685,468.282z"/>
		</g>
		<g>
			<path fill="#36ade0" d="M600.49,482.315c-0.755,0-1.367-0.612-1.367-1.367v-28.066c0-0.755,0.612-1.367,1.367-1.367
				s1.367,0.612,1.367,1.367v28.066C601.857,481.704,601.245,482.315,600.49,482.315z"/>
			<path fill="#36ade0" d="M614.523,468.282h-28.066c-0.755,0-1.367-0.612-1.367-1.367c0-0.755,0.612-1.367,1.367-1.367h28.066
				c0.755,0,1.367,0.612,1.367,1.367C615.89,467.671,615.278,468.282,614.523,468.282z"/>
		</g>
		<g>
			<path fill="#36ade0" d="M733.329,482.315c-0.755,0-1.367-0.612-1.367-1.367v-28.066c0-0.755,0.612-1.367,1.367-1.367
				s1.367,0.612,1.367,1.367v28.066C734.696,481.704,734.084,482.315,733.329,482.315z"/>
			<path fill="#36ade0" d="M747.362,468.282h-28.066c-0.755,0-1.367-0.612-1.367-1.367c0-0.755,0.612-1.367,1.367-1.367h28.066
				c0.755,0,1.367,0.612,1.367,1.367C748.729,467.671,748.117,468.282,747.362,468.282z"/>
		</g>
		<g>
			<path fill="#36ade0" d="M866.167,482.315c-0.755,0-1.367-0.612-1.367-1.367v-28.066c0-0.755,0.612-1.367,1.367-1.367
				c0.755,0,1.367,0.612,1.367,1.367v28.066C867.534,481.704,866.922,482.315,866.167,482.315z"/>
			<path fill="#36ade0" d="M880.2,468.282h-28.066c-0.755,0-1.367-0.612-1.367-1.367c0-0.755,0.612-1.367,1.367-1.367H880.2
				c0.755,0,1.367,0.612,1.367,1.367C881.567,467.671,880.955,468.282,880.2,468.282z"/>
		</g>
		<g>
			<path fill="#36ade0" d="M999.006,482.315c-0.755,0-1.367-0.612-1.367-1.367v-28.066c0-0.755,0.612-1.367,1.367-1.367
				c0.755,0,1.367,0.612,1.367,1.367v28.066C1000.373,481.704,999.761,482.315,999.006,482.315z"/>
			<path fill="#36ade0" d="M1013.039,468.282h-28.066c-0.755,0-1.367-0.612-1.367-1.367c0-0.755,0.612-1.367,1.367-1.367h28.066
				c0.755,0,1.367,0.612,1.367,1.367C1014.406,467.671,1013.794,468.282,1013.039,468.282z"/>
		</g>
		<g>
			<path fill="#36ade0" d="M1131.844,482.315c-0.755,0-1.367-0.612-1.367-1.367v-28.066c0-0.755,0.612-1.367,1.367-1.367
				c0.755,0,1.367,0.612,1.367,1.367v28.066C1133.211,481.704,1132.599,482.315,1131.844,482.315z"/>
			<path fill="#36ade0" d="M1145.877,468.282h-28.066c-0.755,0-1.367-0.612-1.367-1.367c0-0.755,0.612-1.367,1.367-1.367h28.066
				c0.755,0,1.367,0.612,1.367,1.367C1147.244,467.671,1146.632,468.282,1145.877,468.282z"/>
		</g>
	</g>
	<g>
		<g>
			<path fill="#36ade0" d="M201.975,348.1c-0.755,0-1.367-0.612-1.367-1.367v-28.066c0-0.755,0.612-1.367,1.367-1.367
				s1.367,0.612,1.367,1.367v28.066C203.342,347.488,202.73,348.1,201.975,348.1z"/>
			<path fill="#36ade0" d="M216.008,334.067h-28.066c-0.755,0-1.367-0.612-1.367-1.367c0-0.755,0.612-1.367,1.367-1.367h28.066
				c0.755,0,1.367,0.612,1.367,1.367C217.375,333.455,216.763,334.067,216.008,334.067z"/>
		</g>
		<g>
			<path fill="#36ade0" d="M68.156,348.1c-0.755,0-1.367-0.612-1.367-1.367v-28.066c0-0.755,0.612-1.367,1.367-1.367
				s1.367,0.612,1.367,1.367v28.066C69.523,347.488,68.911,348.1,68.156,348.1z"/>
			<path fill="#36ade0" d="M82.189,334.067H54.123c-0.755,0-1.367-0.612-1.367-1.367c0-0.755,0.612-1.367,1.367-1.367h28.066
				c0.755,0,1.367,0.612,1.367,1.367C83.556,333.455,82.944,334.067,82.189,334.067z"/>
		</g>
		<g>
			<path fill="#36ade0" d="M334.813,348.1c-0.755,0-1.367-0.612-1.367-1.367v-28.066c0-0.755,0.612-1.367,1.367-1.367
				c0.755,0,1.367,0.612,1.367,1.367v28.066C336.18,347.488,335.569,348.1,334.813,348.1z"/>
			<path fill="#36ade0" d="M348.846,334.067H320.78c-0.755,0-1.367-0.612-1.367-1.367c0-0.755,0.612-1.367,1.367-1.367h28.066
				c0.755,0,1.367,0.612,1.367,1.367C350.213,333.455,349.602,334.067,348.846,334.067z"/>
		</g>
		<g>
			<path fill="#36ade0" d="M467.652,348.1c-0.755,0-1.367-0.612-1.367-1.367v-28.066c0-0.755,0.612-1.367,1.367-1.367
				c0.755,0,1.367,0.612,1.367,1.367v28.066C469.019,347.488,468.407,348.1,467.652,348.1z"/>
			<path fill="#36ade0" d="M481.685,334.067h-28.066c-0.755,0-1.367-0.612-1.367-1.367c0-0.755,0.612-1.367,1.367-1.367h28.066
				c0.755,0,1.367,0.612,1.367,1.367C483.052,333.455,482.44,334.067,481.685,334.067z"/>
		</g>
		<g>
			<path fill="#36ade0" d="M600.49,348.1c-0.755,0-1.367-0.612-1.367-1.367v-28.066c0-0.755,0.612-1.367,1.367-1.367
				s1.367,0.612,1.367,1.367v28.066C601.857,347.488,601.245,348.1,600.49,348.1z"/>
			<path fill="#36ade0" d="M614.523,334.067h-28.066c-0.755,0-1.367-0.612-1.367-1.367c0-0.755,0.612-1.367,1.367-1.367h28.066
				c0.755,0,1.367,0.612,1.367,1.367C615.89,333.455,615.278,334.067,614.523,334.067z"/>
		</g>
		<g>
			<path fill="#36ade0" d="M733.329,348.1c-0.755,0-1.367-0.612-1.367-1.367v-28.066c0-0.755,0.612-1.367,1.367-1.367
				s1.367,0.612,1.367,1.367v28.066C734.696,347.488,734.084,348.1,733.329,348.1z"/>
			<path fill="#36ade0" d="M747.362,334.067h-28.066c-0.755,0-1.367-0.612-1.367-1.367c0-0.755,0.612-1.367,1.367-1.367h28.066
				c0.755,0,1.367,0.612,1.367,1.367C748.729,333.455,748.117,334.067,747.362,334.067z"/>
		</g>
		<g>
			<path fill="#36ade0" d="M866.167,348.1c-0.755,0-1.367-0.612-1.367-1.367v-28.066c0-0.755,0.612-1.367,1.367-1.367
				c0.755,0,1.367,0.612,1.367,1.367v28.066C867.534,347.488,866.922,348.1,866.167,348.1z"/>
			<path fill="#36ade0" d="M880.2,334.067h-28.066c-0.755,0-1.367-0.612-1.367-1.367c0-0.755,0.612-1.367,1.367-1.367H880.2
				c0.755,0,1.367,0.612,1.367,1.367C881.567,333.455,880.955,334.067,880.2,334.067z"/>
		</g>
		<g>
			<path fill="#36ade0" d="M999.006,348.1c-0.755,0-1.367-0.612-1.367-1.367v-28.066c0-0.755,0.612-1.367,1.367-1.367
				c0.755,0,1.367,0.612,1.367,1.367v28.066C1000.373,347.488,999.761,348.1,999.006,348.1z"/>
			<path fill="#36ade0" d="M1013.039,334.067h-28.066c-0.755,0-1.367-0.612-1.367-1.367c0-0.755,0.612-1.367,1.367-1.367h28.066
				c0.755,0,1.367,0.612,1.367,1.367C1014.406,333.455,1013.794,334.067,1013.039,334.067z"/>
		</g>
		<g>
			<path fill="#36ade0" d="M1131.844,348.1c-0.755,0-1.367-0.612-1.367-1.367v-28.066c0-0.755,0.612-1.367,1.367-1.367
				c0.755,0,1.367,0.612,1.367,1.367v28.066C1133.211,347.488,1132.599,348.1,1131.844,348.1z"/>
			<path fill="#36ade0" d="M1145.877,334.067h-28.066c-0.755,0-1.367-0.612-1.367-1.367c0-0.755,0.612-1.367,1.367-1.367h28.066
				c0.755,0,1.367,0.612,1.367,1.367C1147.244,333.455,1146.632,334.067,1145.877,334.067z"/>
		</g>
	</g>
	<g>
		<g>
			<path fill="#36ade0" d="M201.975,749.616c-0.755,0-1.367-0.612-1.367-1.367v-28.066c0-0.755,0.612-1.367,1.367-1.367
				s1.367,0.612,1.367,1.367v28.066C203.342,749.003,202.73,749.616,201.975,749.616z"/>
			<path fill="#36ade0" d="M216.008,735.582h-28.066c-0.755,0-1.367-0.612-1.367-1.367c0-0.755,0.612-1.367,1.367-1.367h28.066
				c0.755,0,1.367,0.612,1.367,1.367C217.375,734.97,216.763,735.582,216.008,735.582z"/>
		</g>
		<g>
			<path fill="#36ade0" d="M68.156,749.616c-0.755,0-1.367-0.612-1.367-1.367v-28.066c0-0.755,0.612-1.367,1.367-1.367
				s1.367,0.612,1.367,1.367v28.066C69.523,749.003,68.911,749.616,68.156,749.616z"/>
			<path fill="#36ade0" d="M82.189,735.582H54.123c-0.755,0-1.367-0.612-1.367-1.367c0-0.755,0.612-1.367,1.367-1.367h28.066
				c0.755,0,1.367,0.612,1.367,1.367C83.556,734.97,82.944,735.582,82.189,735.582z"/>
		</g>
		<g>
			<path fill="#36ade0" d="M334.813,749.616c-0.755,0-1.367-0.612-1.367-1.367v-28.066c0-0.755,0.612-1.367,1.367-1.367
				c0.755,0,1.367,0.612,1.367,1.367v28.066C336.18,749.003,335.569,749.616,334.813,749.616z"/>
			<path fill="#36ade0" d="M348.846,735.582H320.78c-0.755,0-1.367-0.612-1.367-1.367c0-0.755,0.612-1.367,1.367-1.367h28.066
				c0.755,0,1.367,0.612,1.367,1.367C350.213,734.97,349.602,735.582,348.846,735.582z"/>
		</g>
		<g>
			<path fill="#36ade0" d="M467.652,749.616c-0.755,0-1.367-0.612-1.367-1.367v-28.066c0-0.755,0.612-1.367,1.367-1.367
				c0.755,0,1.367,0.612,1.367,1.367v28.066C469.019,749.003,468.407,749.616,467.652,749.616z"/>
			<path fill="#36ade0" d="M481.685,735.582h-28.066c-0.755,0-1.367-0.612-1.367-1.367c0-0.755,0.612-1.367,1.367-1.367h28.066
				c0.755,0,1.367,0.612,1.367,1.367C483.052,734.97,482.44,735.582,481.685,735.582z"/>
		</g>
		<g>
			<path fill="#36ade0" d="M600.49,749.616c-0.755,0-1.367-0.612-1.367-1.367v-28.066c0-0.755,0.612-1.367,1.367-1.367
				s1.367,0.612,1.367,1.367v28.066C601.857,749.003,601.245,749.616,600.49,749.616z"/>
			<path fill="#36ade0" d="M614.523,735.582h-28.066c-0.755,0-1.367-0.612-1.367-1.367c0-0.755,0.612-1.367,1.367-1.367h28.066
				c0.755,0,1.367,0.612,1.367,1.367C615.89,734.97,615.278,735.582,614.523,735.582z"/>
		</g>
		<g>
			<path fill="#36ade0" d="M733.329,749.616c-0.755,0-1.367-0.612-1.367-1.367v-28.066c0-0.755,0.612-1.367,1.367-1.367
				s1.367,0.612,1.367,1.367v28.066C734.696,749.003,734.084,749.616,733.329,749.616z"/>
			<path fill="#36ade0" d="M747.362,735.582h-28.066c-0.755,0-1.367-0.612-1.367-1.367c0-0.755,0.612-1.367,1.367-1.367h28.066
				c0.755,0,1.367,0.612,1.367,1.367C748.729,734.97,748.117,735.582,747.362,735.582z"/>
		</g>
		<g>
			<path fill="#36ade0" d="M866.167,749.616c-0.755,0-1.367-0.612-1.367-1.367v-28.066c0-0.755,0.612-1.367,1.367-1.367
				c0.755,0,1.367,0.612,1.367,1.367v28.066C867.534,749.003,866.922,749.616,866.167,749.616z"/>
			<path fill="#36ade0" d="M880.2,735.582h-28.066c-0.755,0-1.367-0.612-1.367-1.367c0-0.755,0.612-1.367,1.367-1.367H880.2
				c0.755,0,1.367,0.612,1.367,1.367C881.567,734.97,880.955,735.582,880.2,735.582z"/>
		</g>
		<g>
			<path fill="#36ade0" d="M999.006,749.616c-0.755,0-1.367-0.612-1.367-1.367v-28.066c0-0.755,0.612-1.367,1.367-1.367
				c0.755,0,1.367,0.612,1.367,1.367v28.066C1000.373,749.003,999.761,749.616,999.006,749.616z"/>
			<path fill="#36ade0" d="M1013.039,735.582h-28.066c-0.755,0-1.367-0.612-1.367-1.367c0-0.755,0.612-1.367,1.367-1.367h28.066
				c0.755,0,1.367,0.612,1.367,1.367C1014.406,734.97,1013.794,735.582,1013.039,735.582z"/>
		</g>
		<g>
			<path fill="#36ade0" d="M1131.844,749.616c-0.755,0-1.367-0.612-1.367-1.367v-28.066c0-0.755,0.612-1.367,1.367-1.367
				c0.755,0,1.367,0.612,1.367,1.367v28.066C1133.211,749.003,1132.599,749.616,1131.844,749.616z"/>
			<path fill="#36ade0" d="M1145.877,735.582h-28.066c-0.755,0-1.367-0.612-1.367-1.367c0-0.755,0.612-1.367,1.367-1.367h28.066
				c0.755,0,1.367,0.612,1.367,1.367C1147.244,734.97,1146.632,735.582,1145.877,735.582z"/>
		</g>
	</g>
	<g>
		<g>
			<path fill="#36ade0" d="M201.975,615.4c-0.755,0-1.367-0.612-1.367-1.367v-28.066c0-0.755,0.612-1.367,1.367-1.367
				s1.367,0.612,1.367,1.367v28.066C203.342,614.787,202.73,615.4,201.975,615.4z"/>
			<path fill="#36ade0" d="M216.008,601.367h-28.066c-0.755,0-1.367-0.612-1.367-1.367c0-0.755,0.612-1.367,1.367-1.367h28.066
				c0.755,0,1.367,0.612,1.367,1.367C217.375,600.755,216.763,601.367,216.008,601.367z"/>
		</g>
		<g>
			<path fill="#36ade0" d="M68.156,615.4c-0.755,0-1.367-0.612-1.367-1.367v-28.066c0-0.755,0.612-1.367,1.367-1.367
				s1.367,0.612,1.367,1.367v28.066C69.523,614.787,68.911,615.4,68.156,615.4z"/>
			<path fill="#36ade0" d="M82.189,601.367H54.123c-0.755,0-1.367-0.612-1.367-1.367c0-0.755,0.612-1.367,1.367-1.367h28.066
				c0.755,0,1.367,0.612,1.367,1.367C83.556,600.755,82.944,601.367,82.189,601.367z"/>
		</g>
		<g>
			<path fill="#36ade0" d="M334.813,615.4c-0.755,0-1.367-0.612-1.367-1.367v-28.066c0-0.755,0.612-1.367,1.367-1.367
				c0.755,0,1.367,0.612,1.367,1.367v28.066C336.18,614.787,335.569,615.4,334.813,615.4z"/>
			<path fill="#36ade0" d="M348.846,601.367H320.78c-0.755,0-1.367-0.612-1.367-1.367c0-0.755,0.612-1.367,1.367-1.367h28.066
				c0.755,0,1.367,0.612,1.367,1.367C350.213,600.755,349.602,601.367,348.846,601.367z"/>
		</g>
		<g>
			<path fill="#36ade0" d="M467.652,615.4c-0.755,0-1.367-0.612-1.367-1.367v-28.066c0-0.755,0.612-1.367,1.367-1.367
				c0.755,0,1.367,0.612,1.367,1.367v28.066C469.019,614.787,468.407,615.4,467.652,615.4z"/>
			<path fill="#36ade0" d="M481.685,601.367h-28.066c-0.755,0-1.367-0.612-1.367-1.367c0-0.755,0.612-1.367,1.367-1.367h28.066
				c0.755,0,1.367,0.612,1.367,1.367C483.052,600.755,482.44,601.367,481.685,601.367z"/>
		</g>
		<g>
			<path fill="#36ade0" d="M600.49,615.4c-0.755,0-1.367-0.612-1.367-1.367v-28.066c0-0.755,0.612-1.367,1.367-1.367
				s1.367,0.612,1.367,1.367v28.066C601.857,614.787,601.245,615.4,600.49,615.4z"/>
			<path fill="#36ade0" d="M614.523,601.367h-28.066c-0.755,0-1.367-0.612-1.367-1.367c0-0.755,0.612-1.367,1.367-1.367h28.066
				c0.755,0,1.367,0.612,1.367,1.367C615.89,600.755,615.278,601.367,614.523,601.367z"/>
		</g>
		<g>
			<path fill="#36ade0" d="M733.329,615.4c-0.755,0-1.367-0.612-1.367-1.367v-28.066c0-0.755,0.612-1.367,1.367-1.367
				s1.367,0.612,1.367,1.367v28.066C734.696,614.787,734.084,615.4,733.329,615.4z"/>
			<path fill="#36ade0" d="M747.362,601.367h-28.066c-0.755,0-1.367-0.612-1.367-1.367c0-0.755,0.612-1.367,1.367-1.367h28.066
				c0.755,0,1.367,0.612,1.367,1.367C748.729,600.755,748.117,601.367,747.362,601.367z"/>
		</g>
		<g>
			<path fill="#36ade0" d="M866.167,615.4c-0.755,0-1.367-0.612-1.367-1.367v-28.066c0-0.755,0.612-1.367,1.367-1.367
				c0.755,0,1.367,0.612,1.367,1.367v28.066C867.534,614.787,866.922,615.4,866.167,615.4z"/>
			<path fill="#36ade0" d="M880.2,601.367h-28.066c-0.755,0-1.367-0.612-1.367-1.367c0-0.755,0.612-1.367,1.367-1.367H880.2
				c0.755,0,1.367,0.612,1.367,1.367C881.567,600.755,880.955,601.367,880.2,601.367z"/>
		</g>
		<g>
			<path fill="#36ade0" d="M999.006,615.4c-0.755,0-1.367-0.612-1.367-1.367v-28.066c0-0.755,0.612-1.367,1.367-1.367
				c0.755,0,1.367,0.612,1.367,1.367v28.066C1000.373,614.787,999.761,615.4,999.006,615.4z"/>
			<path fill="#36ade0" d="M1013.039,601.367h-28.066c-0.755,0-1.367-0.612-1.367-1.367c0-0.755,0.612-1.367,1.367-1.367h28.066
				c0.755,0,1.367,0.612,1.367,1.367C1014.406,600.755,1013.794,601.367,1013.039,601.367z"/>
		</g>
		<g>
			<path fill="#36ade0" d="M1131.844,615.4c-0.755,0-1.367-0.612-1.367-1.367v-28.066c0-0.755,0.612-1.367,1.367-1.367
				c0.755,0,1.367,0.612,1.367,1.367v28.066C1133.211,614.787,1132.599,615.4,1131.844,615.4z"/>
			<path fill="#36ade0" d="M1145.877,601.367h-28.066c-0.755,0-1.367-0.612-1.367-1.367c0-0.755,0.612-1.367,1.367-1.367h28.066
				c0.755,0,1.367,0.612,1.367,1.367C1147.244,600.755,1146.632,601.367,1145.877,601.367z"/>
		</g>
	</g>
	<g>
		<g>
			<path fill="#36ade0" d="M201.975,1016.915c-0.755,0-1.367-0.612-1.367-1.367v-28.066c0-0.755,0.612-1.367,1.367-1.367
				s1.367,0.612,1.367,1.367v28.066C203.342,1016.303,202.73,1016.915,201.975,1016.915z"/>
			<path fill="#36ade0" d="M216.008,1002.883h-28.066c-0.755,0-1.367-0.612-1.367-1.367c0-0.755,0.612-1.367,1.367-1.367h28.066
				c0.755,0,1.367,0.612,1.367,1.367C217.375,1002.27,216.763,1002.883,216.008,1002.883z"/>
		</g>
		<g>
			<path fill="#36ade0" d="M68.156,1016.915c-0.755,0-1.367-0.612-1.367-1.367v-28.066c0-0.755,0.612-1.367,1.367-1.367
				s1.367,0.612,1.367,1.367v28.066C69.523,1016.303,68.911,1016.915,68.156,1016.915z"/>
			<path fill="#36ade0" d="M82.189,1002.883H54.123c-0.755,0-1.367-0.612-1.367-1.367c0-0.755,0.612-1.367,1.367-1.367h28.066
				c0.755,0,1.367,0.612,1.367,1.367C83.556,1002.27,82.944,1002.883,82.189,1002.883z"/>
		</g>
		<g>
			<path fill="#36ade0" d="M334.813,1016.915c-0.755,0-1.367-0.612-1.367-1.367v-28.066c0-0.755,0.612-1.367,1.367-1.367
				c0.755,0,1.367,0.612,1.367,1.367v28.066C336.18,1016.303,335.569,1016.915,334.813,1016.915z"/>
			<path fill="#36ade0" d="M348.846,1002.883H320.78c-0.755,0-1.367-0.612-1.367-1.367c0-0.755,0.612-1.367,1.367-1.367h28.066
				c0.755,0,1.367,0.612,1.367,1.367C350.213,1002.27,349.602,1002.883,348.846,1002.883z"/>
		</g>
		<g>
			<path fill="#36ade0" d="M467.652,1016.915c-0.755,0-1.367-0.612-1.367-1.367v-28.066c0-0.755,0.612-1.367,1.367-1.367
				c0.755,0,1.367,0.612,1.367,1.367v28.066C469.019,1016.303,468.407,1016.915,467.652,1016.915z"/>
			<path fill="#36ade0" d="M481.685,1002.883h-28.066c-0.755,0-1.367-0.612-1.367-1.367c0-0.755,0.612-1.367,1.367-1.367h28.066
				c0.755,0,1.367,0.612,1.367,1.367C483.052,1002.27,482.44,1002.883,481.685,1002.883z"/>
		</g>
		<g>
			<path fill="#36ade0" d="M600.49,1016.915c-0.755,0-1.367-0.612-1.367-1.367v-28.066c0-0.755,0.612-1.367,1.367-1.367
				s1.367,0.612,1.367,1.367v28.066C601.857,1016.303,601.245,1016.915,600.49,1016.915z"/>
			<path fill="#36ade0" d="M614.523,1002.883h-28.066c-0.755,0-1.367-0.612-1.367-1.367c0-0.755,0.612-1.367,1.367-1.367h28.066
				c0.755,0,1.367,0.612,1.367,1.367C615.89,1002.27,615.278,1002.883,614.523,1002.883z"/>
		</g>
		<g>
			<path fill="#36ade0" d="M733.329,1016.915c-0.755,0-1.367-0.612-1.367-1.367v-28.066c0-0.755,0.612-1.367,1.367-1.367
				s1.367,0.612,1.367,1.367v28.066C734.696,1016.303,734.084,1016.915,733.329,1016.915z"/>
			<path fill="#36ade0" d="M747.362,1002.883h-28.066c-0.755,0-1.367-0.612-1.367-1.367c0-0.755,0.612-1.367,1.367-1.367h28.066
				c0.755,0,1.367,0.612,1.367,1.367C748.729,1002.27,748.117,1002.883,747.362,1002.883z"/>
		</g>
		<g>
			<path fill="#36ade0" d="M866.167,1016.915c-0.755,0-1.367-0.612-1.367-1.367v-28.066c0-0.755,0.612-1.367,1.367-1.367
				c0.755,0,1.367,0.612,1.367,1.367v28.066C867.534,1016.303,866.922,1016.915,866.167,1016.915z"/>
			<path fill="#36ade0" d="M880.2,1002.883h-28.066c-0.755,0-1.367-0.612-1.367-1.367c0-0.755,0.612-1.367,1.367-1.367H880.2
				c0.755,0,1.367,0.612,1.367,1.367C881.567,1002.27,880.955,1002.883,880.2,1002.883z"/>
		</g>
		<g>
			<path fill="#36ade0" d="M999.006,1016.915c-0.755,0-1.367-0.612-1.367-1.367v-28.066c0-0.755,0.612-1.367,1.367-1.367
				c0.755,0,1.367,0.612,1.367,1.367v28.066C1000.373,1016.303,999.761,1016.915,999.006,1016.915z"/>
			<path fill="#36ade0" d="M1013.039,1002.883h-28.066c-0.755,0-1.367-0.612-1.367-1.367c0-0.755,0.612-1.367,1.367-1.367h28.066
				c0.755,0,1.367,0.612,1.367,1.367C1014.406,1002.27,1013.794,1002.883,1013.039,1002.883z"/>
		</g>
		<g>
			<path fill="#36ade0" d="M1131.844,1016.915c-0.755,0-1.367-0.612-1.367-1.367v-28.066c0-0.755,0.612-1.367,1.367-1.367
				c0.755,0,1.367,0.612,1.367,1.367v28.066C1133.211,1016.303,1132.599,1016.915,1131.844,1016.915z"/>
			<path fill="#36ade0" d="M1145.877,1002.883h-28.066c-0.755,0-1.367-0.612-1.367-1.367c0-0.755,0.612-1.367,1.367-1.367h28.066
				c0.755,0,1.367,0.612,1.367,1.367C1147.244,1002.27,1146.632,1002.883,1145.877,1002.883z"/>
		</g>
	</g>
	<g>
		<g>
			<path fill="#36ade0" d="M201.975,882.699c-0.755,0-1.367-0.612-1.367-1.367v-28.066c0-0.755,0.612-1.367,1.367-1.367
				s1.367,0.612,1.367,1.367v28.066C203.342,882.087,202.73,882.699,201.975,882.699z"/>
			<path fill="#36ade0" d="M216.008,868.667h-28.066c-0.755,0-1.367-0.612-1.367-1.367c0-0.755,0.612-1.367,1.367-1.367h28.066
				c0.755,0,1.367,0.612,1.367,1.367C217.375,868.055,216.763,868.667,216.008,868.667z"/>
		</g>
		<g>
			<path fill="#36ade0" d="M68.156,882.699c-0.755,0-1.367-0.612-1.367-1.367v-28.066c0-0.755,0.612-1.367,1.367-1.367
				s1.367,0.612,1.367,1.367v28.066C69.523,882.087,68.911,882.699,68.156,882.699z"/>
			<path fill="#36ade0" d="M82.189,868.667H54.123c-0.755,0-1.367-0.612-1.367-1.367c0-0.755,0.612-1.367,1.367-1.367h28.066
				c0.755,0,1.367,0.612,1.367,1.367C83.556,868.055,82.944,868.667,82.189,868.667z"/>
		</g>
		<g>
			<path fill="#36ade0" d="M334.813,882.699c-0.755,0-1.367-0.612-1.367-1.367v-28.066c0-0.755,0.612-1.367,1.367-1.367
				c0.755,0,1.367,0.612,1.367,1.367v28.066C336.18,882.087,335.569,882.699,334.813,882.699z"/>
			<path fill="#36ade0" d="M348.846,868.667H320.78c-0.755,0-1.367-0.612-1.367-1.367c0-0.755,0.612-1.367,1.367-1.367h28.066
				c0.755,0,1.367,0.612,1.367,1.367C350.213,868.055,349.602,868.667,348.846,868.667z"/>
		</g>
		<g>
			<path fill="#36ade0" d="M467.652,882.699c-0.755,0-1.367-0.612-1.367-1.367v-28.066c0-0.755,0.612-1.367,1.367-1.367
				c0.755,0,1.367,0.612,1.367,1.367v28.066C469.019,882.087,468.407,882.699,467.652,882.699z"/>
			<path fill="#36ade0" d="M481.685,868.667h-28.066c-0.755,0-1.367-0.612-1.367-1.367c0-0.755,0.612-1.367,1.367-1.367h28.066
				c0.755,0,1.367,0.612,1.367,1.367C483.052,868.055,482.44,868.667,481.685,868.667z"/>
		</g>
		<g>
			<path fill="#36ade0" d="M600.49,882.699c-0.755,0-1.367-0.612-1.367-1.367v-28.066c0-0.755,0.612-1.367,1.367-1.367
				s1.367,0.612,1.367,1.367v28.066C601.857,882.087,601.245,882.699,600.49,882.699z"/>
			<path fill="#36ade0" d="M614.523,868.667h-28.066c-0.755,0-1.367-0.612-1.367-1.367c0-0.755,0.612-1.367,1.367-1.367h28.066
				c0.755,0,1.367,0.612,1.367,1.367C615.89,868.055,615.278,868.667,614.523,868.667z"/>
		</g>
		<g>
			<path fill="#36ade0" d="M733.329,882.699c-0.755,0-1.367-0.612-1.367-1.367v-28.066c0-0.755,0.612-1.367,1.367-1.367
				s1.367,0.612,1.367,1.367v28.066C734.696,882.087,734.084,882.699,733.329,882.699z"/>
			<path fill="#36ade0" d="M747.362,868.667h-28.066c-0.755,0-1.367-0.612-1.367-1.367c0-0.755,0.612-1.367,1.367-1.367h28.066
				c0.755,0,1.367,0.612,1.367,1.367C748.729,868.055,748.117,868.667,747.362,868.667z"/>
		</g>
		<g>
			<path fill="#36ade0" d="M866.167,882.699c-0.755,0-1.367-0.612-1.367-1.367v-28.066c0-0.755,0.612-1.367,1.367-1.367
				c0.755,0,1.367,0.612,1.367,1.367v28.066C867.534,882.087,866.922,882.699,866.167,882.699z"/>
			<path fill="#36ade0" d="M880.2,868.667h-28.066c-0.755,0-1.367-0.612-1.367-1.367c0-0.755,0.612-1.367,1.367-1.367H880.2
				c0.755,0,1.367,0.612,1.367,1.367C881.567,868.055,880.955,868.667,880.2,868.667z"/>
		</g>
		<g>
			<path fill="#36ade0" d="M999.006,882.699c-0.755,0-1.367-0.612-1.367-1.367v-28.066c0-0.755,0.612-1.367,1.367-1.367
				c0.755,0,1.367,0.612,1.367,1.367v28.066C1000.373,882.087,999.761,882.699,999.006,882.699z"/>
			<path fill="#36ade0" d="M1013.039,868.667h-28.066c-0.755,0-1.367-0.612-1.367-1.367c0-0.755,0.612-1.367,1.367-1.367h28.066
				c0.755,0,1.367,0.612,1.367,1.367C1014.406,868.055,1013.794,868.667,1013.039,868.667z"/>
		</g>
		<g>
			<path fill="#36ade0" d="M1131.844,882.699c-0.755,0-1.367-0.612-1.367-1.367v-28.066c0-0.755,0.612-1.367,1.367-1.367
				c0.755,0,1.367,0.612,1.367,1.367v28.066C1133.211,882.087,1132.599,882.699,1131.844,882.699z"/>
			<path fill="#36ade0" d="M1145.877,868.667h-28.066c-0.755,0-1.367-0.612-1.367-1.367c0-0.755,0.612-1.367,1.367-1.367h28.066
				c0.755,0,1.367,0.612,1.367,1.367C1147.244,868.055,1146.632,868.667,1145.877,868.667z"/>
		</g>
	</g>
	<g>
		<g>
			<path fill="#36ade0" d="M201.975,1150c-0.755,0-1.367-0.612-1.367-1.367v-28.066c0-0.755,0.612-1.367,1.367-1.367
				s1.367,0.612,1.367,1.367v28.066C203.342,1149.388,202.73,1150,201.975,1150z"/>
			<path fill="#36ade0" d="M216.008,1135.967h-28.066c-0.755,0-1.367-0.612-1.367-1.367s0.612-1.367,1.367-1.367h28.066
				c0.755,0,1.367,0.612,1.367,1.367S216.763,1135.967,216.008,1135.967z"/>
		</g>
		<g>
			<path fill="#36ade0" d="M68.156,1150c-0.755,0-1.367-0.612-1.367-1.367v-28.066c0-0.755,0.612-1.367,1.367-1.367
				s1.367,0.612,1.367,1.367v28.066C69.523,1149.388,68.911,1150,68.156,1150z"/>
			<path fill="#36ade0" d="M82.189,1135.967H54.123c-0.755,0-1.367-0.612-1.367-1.367s0.612-1.367,1.367-1.367h28.066
				c0.755,0,1.367,0.612,1.367,1.367S82.944,1135.967,82.189,1135.967z"/>
		</g>
		<g>
			<path fill="#36ade0" d="M334.813,1150c-0.755,0-1.367-0.612-1.367-1.367v-28.066c0-0.755,0.612-1.367,1.367-1.367
				c0.755,0,1.367,0.612,1.367,1.367v28.066C336.18,1149.388,335.569,1150,334.813,1150z"/>
			<path fill="#36ade0" d="M348.846,1135.967H320.78c-0.755,0-1.367-0.612-1.367-1.367s0.612-1.367,1.367-1.367h28.066
				c0.755,0,1.367,0.612,1.367,1.367S349.602,1135.967,348.846,1135.967z"/>
		</g>
		<g>
			<path fill="#36ade0" d="M467.652,1150c-0.755,0-1.367-0.612-1.367-1.367v-28.066c0-0.755,0.612-1.367,1.367-1.367
				c0.755,0,1.367,0.612,1.367,1.367v28.066C469.019,1149.388,468.407,1150,467.652,1150z"/>
			<path fill="#36ade0" d="M481.685,1135.967h-28.066c-0.755,0-1.367-0.612-1.367-1.367s0.612-1.367,1.367-1.367h28.066
				c0.755,0,1.367,0.612,1.367,1.367S482.44,1135.967,481.685,1135.967z"/>
		</g>
		<g>
			<path fill="#36ade0" d="M600.49,1150c-0.755,0-1.367-0.612-1.367-1.367v-28.066c0-0.755,0.612-1.367,1.367-1.367
				s1.367,0.612,1.367,1.367v28.066C601.857,1149.388,601.245,1150,600.49,1150z"/>
			<path fill="#36ade0" d="M614.523,1135.967h-28.066c-0.755,0-1.367-0.612-1.367-1.367s0.612-1.367,1.367-1.367h28.066
				c0.755,0,1.367,0.612,1.367,1.367S615.278,1135.967,614.523,1135.967z"/>
		</g>
		<g>
			<path fill="#36ade0" d="M733.329,1150c-0.755,0-1.367-0.612-1.367-1.367v-28.066c0-0.755,0.612-1.367,1.367-1.367
				s1.367,0.612,1.367,1.367v28.066C734.696,1149.388,734.084,1150,733.329,1150z"/>
			<path fill="#36ade0" d="M747.362,1135.967h-28.066c-0.755,0-1.367-0.612-1.367-1.367s0.612-1.367,1.367-1.367h28.066
				c0.755,0,1.367,0.612,1.367,1.367S748.117,1135.967,747.362,1135.967z"/>
		</g>
		<g>
			<path fill="#36ade0" d="M866.167,1150c-0.755,0-1.367-0.612-1.367-1.367v-28.066c0-0.755,0.612-1.367,1.367-1.367
				c0.755,0,1.367,0.612,1.367,1.367v28.066C867.534,1149.388,866.922,1150,866.167,1150z"/>
			<path fill="#36ade0" d="M880.2,1135.967h-28.066c-0.755,0-1.367-0.612-1.367-1.367s0.612-1.367,1.367-1.367H880.2
				c0.755,0,1.367,0.612,1.367,1.367S880.955,1135.967,880.2,1135.967z"/>
		</g>
		<g>
			<path fill="#36ade0" d="M999.006,1150c-0.755,0-1.367-0.612-1.367-1.367v-28.066c0-0.755,0.612-1.367,1.367-1.367
				c0.755,0,1.367,0.612,1.367,1.367v28.066C1000.373,1149.388,999.761,1150,999.006,1150z"/>
			<path fill="#36ade0" d="M1013.039,1135.967h-28.066c-0.755,0-1.367-0.612-1.367-1.367s0.612-1.367,1.367-1.367h28.066
				c0.755,0,1.367,0.612,1.367,1.367S1013.794,1135.967,1013.039,1135.967z"/>
		</g>
		<g>
			<path fill="#36ade0" d="M1131.844,1150c-0.755,0-1.367-0.612-1.367-1.367v-28.066c0-0.755,0.612-1.367,1.367-1.367
				c0.755,0,1.367,0.612,1.367,1.367v28.066C1133.211,1149.388,1132.599,1150,1131.844,1150z"/>
			<path fill="#36ade0" d="M1145.877,1135.967h-28.066c-0.755,0-1.367-0.612-1.367-1.367s0.612-1.367,1.367-1.367h28.066
				c0.755,0,1.367,0.612,1.367,1.367S1146.632,1135.967,1145.877,1135.967z"/>
		</g>
	</g>
</g>
</svg>
